<?xml version="1.0" encoding="UTF-8" standalone="no"?>
<!DOCTYPE svg PUBLIC "-//W3C//DTD SVG 1.1//EN" "http://www.w3.org/Graphics/SVG/1.1/DTD/svg11.dtd">
<svg width="100%" height="100%" viewBox="0 0 24 24" version="1.1" xmlns="http://www.w3.org/2000/svg" xmlns:xlink="http://www.w3.org/1999/xlink" xml:space="preserve" xmlns:serif="http://www.serif.com/" style="fill-rule:evenodd;clip-rule:evenodd;stroke-linejoin:round;stroke-miterlimit:2;">
    <path d="M14.813,2C14.313,2 13.806,2.194 13.406,2.594L11.906,4.094L10.906,3.094L9.5,4.5L11.813,6.813L9.188,9.406L10.594,10.813L13.188,8.188L15.813,10.813L13.188,13.406L14.594,14.813L17.188,12.188L19.5,14.5L20.906,13.094L19.906,12.094L21.406,10.594C22.206,9.794 22.206,8.613 21.406,7.813L19.5,5.906L22,3.406L20.594,2L18.094,4.5L16.188,2.594C15.788,2.194 15.313,2 14.813,2ZM4.406,9.594L3,11L4,12L2.594,13.406C1.794,14.206 1.794,15.387 2.594,16.188L4.5,18.094L2,20.594L3.406,22L5.906,19.5L7.813,21.406C8.613,22.206 9.794,22.206 10.594,21.406L12,20L13,21L14.406,19.594L4.406,9.594Z" style="fill:rgb(233,144,2);fill-rule:nonzero;"/>
</svg>
